<?xml version="1.0" encoding="utf-8"?>
<!-- Generator: Adobe Illustrator 27.2.0, SVG Export Plug-In . SVG Version: 6.00 Build 0)  -->
<svg version="1.1" id="Layer_1" xmlns="http://www.w3.org/2000/svg" xmlns:xlink="http://www.w3.org/1999/xlink" x="0px" y="0px"
	 viewBox="0 0 113.4 22.7" style="enable-background:new 0 0 113.4 22.7;" xml:space="preserve">
<style type="text/css">
	.st0{fill:#26A6D1;}
	.st1{fill:#FF5A00;}
	.st2{fill:#EB001B;}
	.st3{fill:#F79E1B;}
	.st4{fill:#FFFFFF;}
	.st5{fill:#F7B600;}
	.st6{fill:#1A1F71;}
</style>
<g>
	<path class="st0" d="M84.1,7.6l-3.4,7.4h4l0.5-1.2h1.1l0.5,1.2h4.4v-0.9l0.4,0.9h2.3l0.4-0.9v0.9h9.2l1.1-1.2l1.1,1.2h4.7l-3.4-3.7
		l3.4-3.7h-4.7l-1.1,1.1l-1-1.1h-10l-0.9,1.9L92,7.6h-4v0.9l-0.4-0.9C87.6,7.6,84.1,7.6,84.1,7.6z M84.9,8.7h2l2.2,5.1V8.7h2.2
		l1.7,3.6l1.6-3.6h2.1V14h-1.3V9.9L93.5,14h-1.2l-1.9-4.2V14h-2.7l-0.5-1.2h-2.8L84,14h-1.4C82.5,14,84.9,8.7,84.9,8.7z M97.9,8.7
		h5.3l1.6,1.8l1.7-1.8h1.6l-2.5,2.7l2.5,2.7h-1.7l-1.6-1.8l-1.7,1.8h-5.2V8.7L97.9,8.7z M85.9,9.6L85,11.7h1.8L85.9,9.6z M99.2,9.8
		v1h2.9v1.1h-2.9v1.1h3.3l1.5-1.6l-1.5-1.6H99.2L99.2,9.8z"/>
	<g>
		<path id="XMLID_1775_" d="M49.9,19.6v-1.1c0-0.4-0.3-0.7-0.7-0.7c-0.2,0-0.5,0.1-0.6,0.3c-0.1-0.2-0.3-0.3-0.6-0.3
			c-0.2,0-0.4,0.1-0.5,0.3v-0.2h-0.4v1.8h0.4v-1c0-0.3,0.2-0.5,0.4-0.5c0.3,0,0.4,0.2,0.4,0.5v1h0.4v-1c0-0.3,0.2-0.5,0.4-0.5
			c0.3,0,0.4,0.2,0.4,0.5v1L49.9,19.6L49.9,19.6z M55.6,17.9H55v-0.5h-0.4v0.5h-0.4v0.4h0.4V19c0,0.4,0.2,0.6,0.6,0.6
			c0.2,0,0.4-0.1,0.5-0.1l-0.1-0.3c-0.1,0.1-0.2,0.1-0.3,0.1c-0.2,0-0.3-0.1-0.3-0.3v-0.8h0.6L55.6,17.9L55.6,17.9z M58.9,17.8
			c-0.2,0-0.4,0.1-0.5,0.3v-0.2h-0.4v1.8h0.4v-1c0-0.3,0.1-0.5,0.4-0.5c0.1,0,0.2,0,0.2,0l0.1-0.4C59.1,17.8,59,17.8,58.9,17.8
			L58.9,17.8z M54,18c-0.2-0.1-0.4-0.2-0.7-0.2c-0.4,0-0.7,0.2-0.7,0.6c0,0.3,0.2,0.5,0.6,0.5l0.2,0c0.2,0,0.3,0.1,0.3,0.2
			c0,0.1-0.1,0.2-0.4,0.2c-0.3,0-0.5-0.1-0.6-0.2l-0.2,0.3c0.2,0.1,0.5,0.2,0.8,0.2c0.5,0,0.8-0.2,0.8-0.6c0-0.3-0.2-0.5-0.6-0.5
			l-0.2,0c-0.2,0-0.3-0.1-0.3-0.2c0-0.1,0.1-0.2,0.3-0.2c0.2,0,0.4,0.1,0.6,0.1L54,18L54,18z M64.2,17.8c-0.2,0-0.4,0.1-0.5,0.3
			v-0.2h-0.4v1.8h0.4v-1c0-0.3,0.1-0.5,0.4-0.5c0.1,0,0.2,0,0.2,0l0.1-0.4C64.4,17.8,64.3,17.8,64.2,17.8L64.2,17.8z M59.3,18.7
			c0,0.5,0.4,0.9,0.9,0.9c0.3,0,0.4-0.1,0.6-0.2l-0.2-0.3c-0.1,0.1-0.3,0.2-0.5,0.2c-0.3,0-0.5-0.2-0.5-0.6c0-0.3,0.2-0.6,0.5-0.6
			c0.2,0,0.3,0.1,0.5,0.2l0.2-0.3c-0.2-0.1-0.4-0.2-0.6-0.2C59.7,17.8,59.3,18.2,59.3,18.7L59.3,18.7L59.3,18.7z M62.9,18.7v-0.9
			h-0.4v0.2c-0.1-0.2-0.3-0.3-0.6-0.3c-0.5,0-0.9,0.4-0.9,0.9c0,0.5,0.4,0.9,0.9,0.9c0.3,0,0.4-0.1,0.6-0.3v0.2h0.4V18.7L62.9,18.7z
			 M61.5,18.7c0-0.3,0.2-0.6,0.5-0.6c0.3,0,0.5,0.2,0.5,0.6c0,0.3-0.2,0.6-0.5,0.6C61.7,19.3,61.5,19.1,61.5,18.7L61.5,18.7z
			 M56.8,17.8c-0.5,0-0.9,0.4-0.9,0.9c0,0.6,0.4,0.9,0.9,0.9c0.3,0,0.5-0.1,0.7-0.2l-0.2-0.3c-0.1,0.1-0.3,0.2-0.5,0.2
			c-0.2,0-0.5-0.1-0.5-0.4h1.3c0-0.1,0-0.1,0-0.1C57.7,18.2,57.3,17.8,56.8,17.8L56.8,17.8L56.8,17.8z M56.8,18.1
			c0.2,0,0.4,0.1,0.4,0.4h-0.9C56.4,18.3,56.5,18.1,56.8,18.1L56.8,18.1z M66.4,18.7v-1.6h-0.4v0.9c-0.1-0.2-0.3-0.3-0.6-0.3
			c-0.5,0-0.9,0.4-0.9,0.9c0,0.5,0.4,0.9,0.9,0.9c0.3,0,0.4-0.1,0.6-0.3v0.2h0.4V18.7L66.4,18.7z M65,18.7c0-0.3,0.2-0.6,0.5-0.6
			c0.3,0,0.5,0.2,0.5,0.6c0,0.3-0.2,0.6-0.5,0.6C65.2,19.3,65,19.1,65,18.7L65,18.7z M52.1,18.7v-0.9h-0.4v0.2
			c-0.1-0.2-0.3-0.3-0.6-0.3c-0.5,0-0.9,0.4-0.9,0.9c0,0.5,0.4,0.9,0.9,0.9c0.3,0,0.4-0.1,0.6-0.3v0.2h0.4V18.7L52.1,18.7z
			 M50.6,18.7c0-0.3,0.2-0.6,0.5-0.6c0.3,0,0.5,0.2,0.5,0.6c0,0.3-0.2,0.6-0.5,0.6C50.8,19.3,50.6,19.1,50.6,18.7z"/>
		<g>
			<rect id="rect19" x="53.8" y="4.4" class="st1" width="5.8" height="10.4"/>
			<path id="XMLID_330_" class="st2" d="M54.2,9.6c0-2.1,1-4,2.5-5.2C55.6,3.5,54.2,3,52.6,3C49,3,46,6,46,9.6s3,6.6,6.6,6.6
				c1.6,0,3-0.5,4.1-1.4C55.2,13.7,54.2,11.8,54.2,9.6z"/>
			<path id="path22" class="st3" d="M67.5,9.6c0,3.7-3,6.6-6.6,6.6c-1.6,0-3-0.5-4.1-1.4c1.6-1.2,2.5-3.1,2.5-5.2s-1-4-2.5-5.2
				C57.9,3.5,59.3,3,60.8,3C64.5,3,67.5,6,67.5,9.6z"/>
		</g>
	</g>
	<g>
		<path id="path4147" class="st4" d="M32.8,20.9h-30V1.8h30V20.9L32.8,20.9z"/>
		<path id="path4149" class="st5" d="M3.3,17.8h29v2.6h-29V17.8z"/>
		<path id="path4151" class="st6" d="M3.3,4.9h29V2.3h-29V4.9z"/>
		<g id="g4155">
			<g id="g4161" transform="translate(305.1123,421.1924)">
				<path id="path4163" class="st6" d="M-287.6-413.4l-1.5,7.2h-1.8l1.5-7.2C-289.5-413.4-287.6-413.4-287.6-413.4z M-279.8-408.8
					l1-2.7l0.6,2.7H-279.8z M-277.8-406.3h1.7l-1.5-7.1h-1.6c-0.4,0-0.7,0.2-0.8,0.5l-2.8,6.6h1.9l0.4-1.1h2.4
					C-278-407.4-277.8-406.3-277.8-406.3z M-282.6-408.6c0-1.9-2.6-2-2.6-2.8c0-0.3,0.3-0.5,0.8-0.6c0.3,0,1-0.1,1.8,0.3l0.3-1.5
					c-0.4-0.2-1-0.3-1.7-0.3c-1.8,0-3.1,1-3.1,2.4c0,1,0.9,1.6,1.6,1.9c0.7,0.3,1,0.6,1,0.9c0,0.5-0.6,0.7-1.1,0.7
					c-0.9,0-1.4-0.2-1.9-0.4l-0.3,1.6c0.4,0.2,1.2,0.4,2.1,0.4C-283.9-406.2-282.6-407.1-282.6-408.6 M-290.2-413.4l-3,7.2h-2
					l-1.5-5.7c-0.1-0.3-0.2-0.5-0.4-0.6c-0.4-0.2-1.2-0.5-1.8-0.6l0-0.2h3.2c0.4,0,0.8,0.3,0.8,0.7l0.8,4.1l1.9-4.9
					C-292.2-413.4-290.2-413.4-290.2-413.4z"/>
			</g>
		</g>
	</g>
</g>
</svg>
