<?xml version="1.0" encoding="utf-8"?>
<!-- Generator: Adobe Illustrator 27.2.0, SVG Export Plug-In . SVG Version: 6.00 Build 0)  -->
<svg version="1.1" id="Layer_1" xmlns="http://www.w3.org/2000/svg" xmlns:xlink="http://www.w3.org/1999/xlink" x="0px" y="0px"
	 viewBox="0 0 113.4 22.7" style="enable-background:new 0 0 113.4 22.7;" xml:space="preserve">
<style type="text/css">
	.st0{fill:#253B80;}
	.st1{fill:#179BD7;}
	.st2{fill:#222D65;}
</style>
<g>
	<path class="st0" d="M47.2,6.3h-4.1c-0.3,0-0.5,0.2-0.5,0.5l-1.7,10.6c-0.1,0.2,0.1,0.4,0.4,0.4h2c0.3,0,0.5-0.2,0.5-0.5l0.4-2.9
		c0.1-0.3,0.3-0.5,0.5-0.5h1.3c2.7,0,4.3-1.3,4.7-3.9c0.2-1.2,0-2.1-0.5-2.7C49.7,6.6,48.6,6.3,47.2,6.3z M47.7,10.2
		c-0.2,1.5-1.3,1.5-2.5,1.5h-0.6L45,8.9c0-0.2,0.2-0.3,0.4-0.3h0.3c0.7,0,1.5,0,1.8,0.4C47.7,9.2,47.8,9.7,47.7,10.2z"/>
	<path class="st0" d="M59.6,10.1h-2c-0.2,0-0.3,0.1-0.4,0.3l-0.1,0.5l-0.1-0.2c-0.4-0.6-1.4-0.8-2.4-0.8c-2.2,0-4.1,1.6-4.4,4
		c-0.2,1.2,0.1,2.3,0.7,3c0.6,0.7,1.5,1,2.5,1c1.8,0,2.7-1.2,2.7-1.2l-0.1,0.5c-0.1,0.2,0.1,0.4,0.4,0.4h1.8c0.3,0,0.5-0.2,0.5-0.5
		l1.2-6.8C60,10.3,59.8,10.1,59.6,10.1z M56.9,14c-0.2,1.2-1.1,1.9-2.2,1.9c-0.6,0-1-0.2-1.3-0.5c-0.3-0.4-0.4-0.8-0.3-1.4
		c0.2-1.2,1.1-1.9,2.2-1.9c0.5,0,1,0.2,1.3,0.5C56.8,12.9,56.9,13.4,56.9,14z"/>
	<path class="st0" d="M70.2,10.1h-2c-0.2,0-0.4,0.1-0.5,0.2L65,14.4l-1.2-3.9c-0.1-0.2-0.3-0.4-0.5-0.4h-1.9c-0.2,0-0.4,0.2-0.3,0.5
		l2.2,6.4l-2.1,2.9c-0.2,0.2,0,0.5,0.3,0.5h2c0.2,0,0.4-0.1,0.5-0.2l6.6-9.6C70.7,10.5,70.5,10.1,70.2,10.1z"/>
	<path class="st1" d="M76.8,6.3h-4.1c-0.3,0-0.5,0.2-0.5,0.5l-1.7,10.6c-0.1,0.2,0.1,0.4,0.4,0.4H73c0.2,0,0.4-0.1,0.4-0.4l0.5-3
		c0.1-0.3,0.3-0.5,0.5-0.5h1.3c2.7,0,4.3-1.3,4.7-3.9c0.2-1.2,0-2.1-0.5-2.7C79.3,6.6,78.2,6.3,76.8,6.3z M77.3,10.2
		c-0.2,1.5-1.3,1.5-2.5,1.5h-0.6l0.4-2.8c0-0.2,0.2-0.3,0.4-0.3h0.3c0.7,0,1.5,0,1.8,0.4C77.3,9.2,77.4,9.7,77.3,10.2z"/>
	<path class="st1" d="M89.2,10.1h-2c-0.2,0-0.3,0.1-0.4,0.3l-0.1,0.5l-0.1-0.2c-0.4-0.6-1.4-0.8-2.4-0.8c-2.2,0-4.1,1.6-4.4,4
		c-0.2,1.2,0.1,2.3,0.7,3c0.6,0.7,1.5,1,2.5,1c1.8,0,2.7-1.2,2.7-1.2l-0.1,0.5c-0.1,0.2,0.1,0.4,0.4,0.4h1.8c0.3,0,0.5-0.2,0.5-0.5
		l1.1-6.8C89.6,10.3,89.5,10.1,89.2,10.1z M86.4,14c-0.2,1.2-1.1,1.9-2.2,1.9c-0.5,0-1-0.2-1.3-0.5s-0.4-0.8-0.3-1.4
		c0.2-1.2,1.1-1.9,2.2-1.9c0.5,0,1,0.2,1.3,0.5C86.4,12.9,86.6,13.4,86.4,14z"/>
	<path class="st1" d="M91.6,6.6l-1.7,10.9c-0.1,0.2,0.1,0.4,0.4,0.4H92c0.3,0,0.5-0.2,0.5-0.5l1.7-10.6c0.1-0.2-0.1-0.4-0.4-0.4
		h-1.9C91.8,6.3,91.6,6.4,91.6,6.6z"/>
	<path class="st0" d="M23.6,19.9l0.3-2h-0.7h-3.3L22.2,3c0-0.1,0.1-0.1,0.1-0.1c0.1,0,0.1-0.1,0.1-0.1H28c1.9,0,3.2,0.4,3.9,1.2
		c0.3,0.4,0.5,0.7,0.6,1.2c0.1,0.4,0.1,1,0,1.6v0.1v0.4l0.3,0.2c0.2,0.1,0.5,0.3,0.7,0.5c0.3,0.3,0.4,0.7,0.5,1.2
		c0.1,0.5,0.1,1-0.1,1.7c-0.1,0.7-0.4,1.4-0.7,1.9c-0.3,0.5-0.7,0.9-1.1,1.2c-0.4,0.3-0.9,0.5-1.5,0.7c-0.5,0.1-1.2,0.2-1.9,0.2
		h-0.4c-0.3,0-0.6,0.1-0.8,0.3c-0.2,0.2-0.4,0.5-0.4,0.8L27,16l-0.5,3.6v0.1c0,0.1,0,0.1-0.1,0.1h-0.1
		C26.3,19.9,23.6,19.9,23.6,19.9z"/>
	<path class="st1" d="M33.1,6.8L33.1,6.8L33.1,6.8c0,0.1-0.1,0.2-0.1,0.4c-0.7,3.9-3.3,5.2-6.6,5.2h-1.7c-0.4,0-0.7,0.3-0.8,0.7l0,0
		l0,0l-0.8,5.4L22.9,20c-0.1,0.2,0.2,0.5,0.4,0.5h3c0.4,0,0.7-0.2,0.7-0.6v-0.1l0.5-3.5l0.1-0.2c0.1-0.4,0.4-0.6,0.7-0.6h0.4
		c2.9,0,5.1-1.2,5.8-4.6c0.3-1.4,0.1-2.6-0.6-3.4C33.8,7.2,33.5,7,33.1,6.8z"/>
	<path class="st2" d="M32.4,6.5c-0.1-0.1-0.2-0.1-0.4-0.1c-0.1,0-0.2-0.1-0.4-0.1c-0.4-0.1-1-0.1-1.5-0.1h-4.5c-0.1,0-0.2,0-0.3,0.1
		c-0.2,0.1-0.4,0.3-0.4,0.5l-1,6V13c0.1-0.4,0.4-0.7,0.8-0.7h1.7c3.3,0,5.8-1.3,6.6-5.2c0-0.1,0.1-0.2,0.1-0.4
		c-0.2-0.1-0.4-0.2-0.6-0.2C32.5,6.6,32.4,6.5,32.4,6.5z"/>
	<path class="st0" d="M25,6.9c0.1-0.2,0.2-0.4,0.4-0.5c0.1-0.1,0.2-0.1,0.3-0.1h4.5c0.5,0,1,0.1,1.5,0.1c0.1,0,0.2,0.1,0.4,0.1
		c0.1,0,0.2,0.1,0.4,0.1c0.1,0,0.1,0.1,0.2,0.1c0.2,0.1,0.4,0.2,0.6,0.2c0.2-1.4,0-2.4-0.8-3.3c-0.8-1-2.4-1.4-4.4-1.4h-5.7
		c-0.4,0-0.7,0.3-0.8,0.7l-2.4,15.1c-0.1,0.3,0.2,0.5,0.5,0.5h3.5l0.9-5.6L25,6.9z"/>
</g>
</svg>
