<?xml version="1.0" encoding="utf-8"?>
<!-- Generator: Adobe Illustrator 26.5.0, SVG Export Plug-In . SVG Version: 6.00 Build 0)  -->
<svg version="1.1" id="圖層_1" xmlns="http://www.w3.org/2000/svg" xmlns:xlink="http://www.w3.org/1999/xlink" x="0px" y="0px"
	 viewBox="0 0 318.5 64" style="enable-background:new 0 0 318.5 64;" xml:space="preserve">
<g>
	<path d="M112.5,49.4c0.9-1.6,1.6-3.1,2.4-4.6c1.4-2.8,2.7-5.6,4.3-8.3c1.1-2,2-4.1,3.2-6c1.5-2.5,2.7-5.2,4.1-7.8
		c1.2-2.1,2.2-4.2,3.3-6.3c1.3-2.5,2.6-5,4-7.4c0.8-1.5,1.6-2.9,2.4-4.4c1.2-2.2,4.3-3.2,6.7-1.3c2,1.6,2.4,3.4,1.2,5.9
		c-0.9,1.9-2,3.8-3,5.7c-1.6,3.1-3.2,6.1-4.8,9.2c-1.1,2.1-2,4.2-3.2,6.2c-1.5,2.4-2.6,5.1-4,7.6c-1.2,2.1-2.1,4.3-3.3,6.3
		c-1.5,2.5-2.6,5.1-4,7.6c-1.2,2.1-2.2,4.4-3.4,6.5c-0.9,1.6-1.5,3.4-3,4.6c-1,0.8-2,1.7-3.4,0.8c-2.2,0.2-2.9-1.4-3.7-3
		c-0.8-1.5-1.4-3-2.3-4.5c-1.6-2.6-2.7-5.5-4.3-8.1c-1.2-2.1-2.3-4.4-3.4-6.5c-1.5-2.7-2.7-5.6-4.3-8.2c-1.3-2-2.2-4.3-3.4-6.3
		c-1.5-2.7-2.8-5.6-4.3-8.2c-1.3-2.2-2.4-4.5-3.5-6.8c-0.5-1-1.2-1.8-1.6-2.8c-0.6-1.2-0.9-2.4-0.3-3.9C81,3.9,82,3.1,83.3,2.6
		c2.3-0.9,4.4,0.1,5.6,2.3c1.6,3.2,3.2,6.4,5,9.5c1.3,2.3,2.4,4.7,3.7,7c1.3,2.2,2.3,4.6,3.5,6.8c1.4,2.3,2.4,4.8,3.8,7.1
		c1.3,2.2,2.3,4.6,3.6,6.8c1.3,2.2,2.4,4.4,3.5,6.7C112,49,112.2,49.1,112.5,49.4z"/>
	<path d="M270.3,14.4c-1.1,2.1-2.1,4-3.2,6c-1.7,3.2-3.2,6.5-5.1,9.7c-1.2,2.1-2.3,4.3-3.4,6.5c-1.5,2.7-2.7,5.6-4.3,8.2
		c-1.1,1.8-1.9,3.7-3,5.5c-1.5,2.7-2.8,5.5-4.3,8.3c-0.9,1.7-1.7,2.3-3.4,2.9c-0.6,0.2-1,0.2-1.6,0c-0.4-0.2-0.8-0.2-1.6-0.4
		c-0.1-0.1-0.3-0.5-0.6-0.7c-1.3-1-1.8-2.4-1.6-4c0.1-0.7,0.3-1.2,0.6-1.7c1.8-3.5,3.6-7,5.5-10.5c1.4-2.7,2.9-5.5,4.4-8.2
		c1.1-2.1,2.1-4.3,3.3-6.3c1.5-2.4,2.6-5,3.9-7.5c1.2-2.2,2.4-4.4,3.5-6.6c1.2-2.4,2.4-4.8,3.7-7.1c1.1-1.9,2.1-3.9,3.1-5.9
		c1.5-3.2,6-3.5,8-0.3c0.8,1.3,1.5,2.8,2.3,4.1c1.6,2.7,2.9,5.5,4.4,8.2c1.2,2.1,2.3,4.3,3.3,6.5c0.6,1.3,1.3,2.6,2,3.8
		c0.8,1.2,1.3,2.6,2.1,3.8c1.1,1.7,1.9,3.6,2.8,5.4c1.4,2.8,2.8,5.6,4.3,8.3c1.1,2,2.1,4.2,3.3,6.2c1.2,2,2.1,4,3.2,6
		c0.4,0.8,0.9,1.7,0.8,2.5c-0.2,1.6-0.7,3-2.3,3.9c-1,0.6-2.1,1.1-3.1,0.7c-1.1-0.5-2.3-1-3-2.3c-0.7-1.3-1.4-2.5-2-3.8
		c-1.7-3.3-3.5-6.5-5.2-9.8c-1.2-2.4-2.3-4.9-3.7-7.1c-1.5-2.5-2.6-5.1-4-7.6c-1.2-2.1-2.1-4.3-3.3-6.3c-1.5-2.5-2.6-5.1-4.1-7.6
		C271.2,16.2,270.8,15.4,270.3,14.4z"/>
	<path d="M158.5,46.3c0.4-0.5,0.9-1.2,1.4-1.7c1.2-1.2,3.3-1.4,5-0.8c0.8,0.3,1.4,0.7,2,1.3c1.4,1.4,3,2.5,4.8,3.4
		c3,1.7,6.1,3.1,9.3,4.1c0.7,0.2,1.4,0.5,2.1,0.5c1.8,0.1,3.4,0.9,5.3,0.8c1.9-0.1,3.7,0,5.6,0c2.2-0.1,4.3-0.5,6.5-1
		c3-0.7,5.9-1.8,8.7-3.2c1.9-1,3.7-2.2,5.4-3.6c0-3.1,0-6,0-9c-0.2-0.2-0.4-0.4-0.6-0.6c-8,0-16.1,0-24.1,0c-2.1,0-3.2-1.1-4-2.7
		c-0.9-1.8,0.1-4.4,1.8-5.4c0.8-0.5,1.6-0.8,2.6-0.8c9.5,0,19,0,28.6,0c1.9,0,3.7,1,4.6,3.2c0.2,0.4,0.1,0.9,0.1,1.3
		c0,3.1,0,6.2,0,9.3c0,1.3-0.1,2.6,0,3.9c0.1,1.2-0.4,2.4,0.4,3.5c-0.5,1.2-0.5,2.7-1.7,3.5c-1.6,1.1-3,2.3-4.6,3.4
		c-1.8,1.2-3.7,2.3-5.6,3.2c-2.3,1.1-4.8,1.8-7.2,2.7c-0.9,0.3-1.9,0.2-2.8,0.7c-0.8,0.4-1.9,0.2-2.9,0.5c-1.7,0.4-3.4,0.7-5.1,0.7
		c-1.8,0.1-3.6,0.1-5.4,0c-0.8,0-1.6-0.2-2.3-0.4c-0.8-0.1-1.5,0.1-2.4-0.3c-0.8-0.3-1.8-0.3-2.7-0.4c-1.2-0.1-2.2-0.7-3.3-0.9
		c-1.1-0.2-2.1-0.7-3.2-1.1c-2-0.7-3.8-1.8-5.7-2.6c-1.6-0.7-3-1.6-4.3-2.6c-1.6-1.2-3.4-2.3-4.8-3.9c-0.8-0.9-1.3-1.8-1.2-3
		C158.6,47.8,158.5,47.1,158.5,46.3z"/>
	<path d="M33.3,0.6c1.8,0.1,4,0.1,6.1,0.5c1.5,0.3,3.2,0.2,4.6,1c2,0.1,3.8,1,5.7,1.6c2.7,0.9,5.3,2.2,7.8,3.7
		c1.1,0.7,2.3,1.3,3.4,2.1c1.2,0.9,2.6,1.8,3.6,3c2.4,2.9,0.6,6.7-2.1,7.4c-1.7,0.5-3.6,0.2-5-1.1c-2.4-2-5-3.7-7.8-5
		c-2.3-1-4.6-2-7.1-2.5c-0.7-0.1-1.6-0.1-2.1-0.4c-0.7-0.4-1.4-0.1-2-0.3c-1.5-0.6-3-0.3-4.5-0.4c-1.5,0-3-0.2-4.4,0
		c-2.6,0.5-5.3,0.4-7.7,1.9c-2.8,0.5-5.1,1.9-7.6,3.1c-1.3,0.7-2.6,1.6-3.8,2.5c-0.8,0.6-1.5,1.3-2.3,1.9c-2.1,1.6-5.7,1.5-7-1.1
		c-1.3-1.2-0.7-2.7-0.6-4c0.1-1.2,1-2,1.9-2.7C4.5,10.3,6.6,8.5,9,7.2c1.2-0.6,2.3-1.4,3.5-1.9c2.3-1.1,4.7-2.1,7.2-2.7
		c1.8-0.5,3.6-1,5.5-1.2c1.1-0.1,2.3,0,3.3-0.4C30,0.5,31.5,0.7,33.3,0.6z"/>
	<path d="M158.5,18.1c0-1.1,0-1.9,0-2.7c-0.1-0.9,0.4-1.6,1-2.3c1.3-1.5,3-2.6,4.6-3.8c2.4-1.7,5.1-3.2,7.8-4.4
		c2-0.9,4.1-1.7,6.2-2.2c1.8-0.5,3.4-1.2,5.3-1.2c1.3-0.9,2.9-0.2,4.3-0.7c1.3-0.5,2.9,0,4.4-0.1c1.1,0,2.1,0.2,3.1,0.4
		c1,0.2,2-0.3,2.9,0.4c1.6-0.2,3.1,0.5,4.7,0.8c2.1,0.4,4.1,1.1,6.2,1.9c1.5,0.6,2.9,1.2,4.2,1.9c2.1,1.1,6,3.6,7.6,5
		c0.7,0.6,1.4,1.1,1.9,1.9c0.6,0.9,0.5,1.9,0.9,2.7c-0.5,0.9-0.4,2-1.1,2.8c-0.7,0.8-1.3,1.3-2.4,1.6c-0.5,0.1-1.1,0.5-1.6,0.3
		c-1-0.5-2.1-0.4-3-1.2c-1.6-1.5-3.5-2.6-5.4-3.8c-2.7-1.7-5.7-2.8-8.7-3.7c-1.7-0.5-3.5-0.7-5.2-1c-2.5-0.4-5.1-0.2-7.6-0.3
		c-0.8,0-1.6-0.3-2.4,0.3c-0.6,0.4-1.6-0.3-2.3,0.4c-2.2,0-4.1,0.9-6.1,1.6c-1.1,0.4-2.1,1.1-3.2,1.5c-2.5,1-4.6,2.6-6.9,3.9
		c-0.5,0.3-0.8,0.8-1.2,1.2c-1.5,1.5-4.2,2-6,1C159.9,19.8,159.2,18.7,158.5,18.1z"/>
	<path d="M59.2,44.3c0.7,0,1.4,0,2.2,0c1.7,0,3.7,2,3.7,3.8c0,0.3,0,0.5,0,0.8c0.3,1.9-0.6,3.2-2,4.2c-1.7,1.3-3.5,2.7-5.4,3.8
		c-1.6,1-3.3,1.8-4.9,2.5c-2.6,1.2-5.3,2-8.1,2.8c-0.7,0.2-1.4,0.4-2.2,0.3c-0.6,0.9-1.5,0.1-2.3,0.6c-0.6,0.4-1.5,0-2.2,0.2
		c-2.2,0.6-4.4,0.3-6.6,0.3c-1,0-2.1,0.1-3.1-0.3c-0.9-0.3-2,0.3-2.9-0.4c-2.1,0.1-4-0.8-6.1-1.2c-1.3-0.2-2.5-0.9-3.7-1.3
		c-3.2-1.2-6.2-2.8-9-4.8c-1.8-1.3-3.7-2.5-5.3-4.1c-0.8-0.7-0.9-1.7-1.1-2.6c-0.1-0.3,0-0.7,0-1c-0.3-1.3,0.5-2.2,1.2-3
		c0.8-0.9,1.8-1.3,3.1-1.4c1.7-0.1,2.9,0.6,4.2,1.7c2.3,2,4.9,3.5,7.6,4.9c2.1,1.1,4.2,1.9,6.5,2.6c1.4,0.4,2.8,0.6,4.3,0.9
		c3.2,0.7,6.5,0.4,9.7,0.3c1.8-0.1,3.7-0.4,5.5-1c1.6-0.5,3.3-1.1,4.9-1.6c1.3-0.4,2.4-1.1,3.6-1.6c1.2-0.5,2.2-1.2,3.3-1.9
		c1.1-0.8,2.1-1.7,3.2-2.4C57.8,45,58.5,44.7,59.2,44.3z"/>
	<path d="M36.8,28.2c2.8,2.3,3.3,5.8-0.5,8.4c-11.2,0-22.4,0-33.6,0c-0.4-0.8-1.4-0.9-1.9-1.8c-1.1-2-1.1-4,0.4-5.6
		c0.4-0.4,0.7-0.7,1-1c1.8-0.8,3.6-0.5,5.3-0.5c7.9,0,15.8,0,23.7,0C33.1,27.7,34.9,27.4,36.8,28.2z"/>
	<path d="M265.2,42.7c0.3-0.5,0.6-0.9,0.8-1.3c0.6-1.2,1.6-1.7,2.8-2.1c1.4-0.5,2.6-0.3,4,0.4c2.7,1.4,4,5.3,1.5,8.2
		c-1,1.2-2.4,1.7-3.7,1.7c-1,0.1-2.2-0.3-3.2-1c-1-0.7-1.7-1.6-2-2.6C264.9,44.9,265.2,43.7,265.2,42.7z"/>
	<path d="M315.4,61.7c-0.5,0-1.2,0-1.9,0c-2,0-3.6-1.4-3.9-3.5c-0.4-2.6,0.9-4.7,3.3-5.3c1.3-0.3,2.6,0,3.8,0.9c1,0.8,1.4,2,1.8,3.1
		c0.4,1-0.8,3.3-1.8,4C316.3,61.1,315.9,61.4,315.4,61.7z M312,60.4c1,0.2,1.7,0.9,2.6,0.3c0.8-0.5,1.9-0.7,2.2-1.5
		c0.3-0.8,0.8-1.6,0.5-2.5c-0.4-1.1-1.1-2.1-2.3-2.7c-0.7,0-1.4,0-1.9,0c-1.3,0.5-2.2,1.2-2.7,2.1C310.1,57.9,310.5,59.4,312,60.4z"
		/>
	<path d="M312.3,55.2c1,0,2,0,3,0c0.2,0.5,0.4,1,0.6,1.5c-0.3,0.3-0.6,0.7-0.9,1c0.3,0.6,0.6,1.2,0.9,2c-0.5,0-0.8,0-1.1,0
		c-0.3-0.6-0.7-1.2-1.1-1.9c-0.1,0-0.2,0-0.3,0.1c0,0.6,0,1.2,0,1.8c-1.2,0-1.2,0-1.2-0.7C312.3,57.7,312.3,56.5,312.3,55.2z
		 M313.5,57c0.5,0,0.8,0,1.1,0c0-0.4-0.1-0.8-0.1-1c-0.4,0-0.7,0-1.1,0C313.5,56.3,313.5,56.6,313.5,57z"/>
</g>
</svg>
